<svg width="142" height="122" viewBox="0 0 142 122" fill="none" xmlns="http://www.w3.org/2000/svg">
<g clip-path="url(#clip0_14_73)">
<path d="M49.7861 0.5H99.0088C109.936 0.5 118.078 0.501612 124.239 1.375C130.194 2.21918 134.214 3.86773 137.079 7.04785L137.354 7.36035C140.235 10.7459 141.289 15.0543 141.168 21.2617C141.061 26.7058 140.053 33.5405 138.634 42.3906L138.002 46.3086L131.207 88.3086C129.907 96.3448 128.938 102.326 127.6 106.897C126.348 111.17 124.788 114.158 122.373 116.408L121.878 116.849C119.178 119.147 115.853 120.317 111.141 120.907C106.414 121.499 100.355 121.5 92.2139 121.5H42.9912C32.064 121.5 23.9221 121.498 17.7607 120.625C11.8056 119.781 7.78641 118.132 4.92095 114.952L4.64653 114.64C1.76476 111.254 0.710603 106.946 0.83208 100.738C0.938651 95.2942 1.94683 88.4595 3.36626 79.6094L3.9981 75.6914L10.793 33.6914C12.093 25.6552 13.0617 19.6736 14.4004 15.1025C15.6517 10.8299 17.2125 7.84211 19.6271 5.5918L20.1222 5.15137C22.8219 2.85334 26.147 1.68254 30.8594 1.09277C34.4041 0.649141 38.6986 0.537751 44.0587 0.509766L49.7861 0.5Z" fill="#0E131B" fill-opacity="0.8"/>
<path d="M49.7861 0.5H99.0088C109.936 0.5 118.078 0.501612 124.239 1.375C130.194 2.21918 134.214 3.86773 137.079 7.04785L137.354 7.36035C140.235 10.7459 141.289 15.0543 141.168 21.2617C141.061 26.7058 140.053 33.5405 138.634 42.3906L138.002 46.3086L131.207 88.3086C129.907 96.3448 128.938 102.326 127.6 106.897C126.348 111.17 124.788 114.158 122.373 116.408L121.878 116.849C119.178 119.147 115.853 120.317 111.141 120.907C106.414 121.499 100.355 121.5 92.2139 121.5H42.9912C32.064 121.5 23.9221 121.498 17.7607 120.625C11.8056 119.781 7.78641 118.132 4.92095 114.952L4.64653 114.64C1.76476 111.254 0.710603 106.946 0.83208 100.738C0.938651 95.2942 1.94683 88.4595 3.36626 79.6094L3.9981 75.6914L10.793 33.6914C12.093 25.6552 13.0617 19.6736 14.4004 15.1025C15.6517 10.8299 17.2125 7.84211 19.6271 5.5918L20.1222 5.15137C22.8219 2.85334 26.147 1.68254 30.8594 1.09277C34.4041 0.649141 38.6986 0.537751 44.0587 0.509766L49.7861 0.5Z" fill="url(#paint0_radial_14_73)"/>
<path d="M49.7861 0.5H99.0088C109.936 0.5 118.078 0.501612 124.239 1.375C130.194 2.21918 134.214 3.86773 137.079 7.04785L137.354 7.36035C140.235 10.7459 141.289 15.0543 141.168 21.2617C141.061 26.7058 140.053 33.5405 138.634 42.3906L138.002 46.3086L131.207 88.3086C129.907 96.3448 128.938 102.326 127.6 106.897C126.348 111.17 124.788 114.158 122.373 116.408L121.878 116.849C119.178 119.147 115.853 120.317 111.141 120.907C106.414 121.499 100.355 121.5 92.2139 121.5H42.9912C32.064 121.5 23.9221 121.498 17.7607 120.625C11.8056 119.781 7.78641 118.132 4.92095 114.952L4.64653 114.64C1.76476 111.254 0.710603 106.946 0.83208 100.738C0.938651 95.2942 1.94683 88.4595 3.36626 79.6094L3.9981 75.6914L10.793 33.6914C12.093 25.6552 13.0617 19.6736 14.4004 15.1025C15.6517 10.8299 17.2125 7.84211 19.6271 5.5918L20.1222 5.15137C22.8219 2.85334 26.147 1.68254 30.8594 1.09277C34.4041 0.649141 38.6986 0.537751 44.0587 0.509766L49.7861 0.5Z" stroke="url(#paint1_radial_14_73)"/>
<path d="M91.8257 42.6849C87.9418 40.9635 83.7887 39.7123 79.4472 39C78.914 39.9132 78.2911 41.1416 77.8616 42.1187C73.2462 41.4612 68.6734 41.4612 64.1428 42.1187C63.7136 41.1416 63.0762 39.9132 62.5384 39C58.1919 39.7123 54.0344 40.968 50.1505 42.6941C42.3166 53.9086 40.193 64.8448 41.2548 75.6256C46.4506 79.3015 51.486 81.5343 56.4364 82.9953C57.6587 81.402 58.7488 79.708 59.6881 77.9224C57.8993 77.2786 56.1863 76.4841 54.5676 75.5615C54.9972 75.2604 55.4172 74.9453 55.823 74.621C65.6957 78.9954 76.4221 78.9954 86.177 74.621C86.5875 74.9453 87.0075 75.2604 87.4321 75.5615C85.8088 76.4885 84.0909 77.283 82.3024 77.9271C83.2414 79.708 84.3268 81.4064 85.5538 83C90.509 81.5389 95.549 79.3059 100.745 75.6256C101.991 63.1279 98.6166 52.2921 91.8257 42.6849ZM61.0329 68.9956C58.0692 68.9956 55.6389 66.3743 55.6389 63.1827C55.6389 59.991 58.0174 57.3653 61.0329 57.3653C64.0485 57.3653 66.4787 59.9863 66.4269 63.1827C66.4318 66.3743 64.0485 68.9956 61.0329 68.9956ZM80.9668 68.9956C78.0031 68.9956 75.5728 66.3743 75.5728 63.1827C75.5728 59.991 77.9513 57.3653 80.9668 57.3653C83.9824 57.3653 86.4129 59.9863 86.3608 63.1827C86.3608 66.3743 83.9824 68.9956 80.9668 68.9956Z" fill="white"/>
</g>
<defs>
<radialGradient id="paint0_radial_14_73" cx="0" cy="0" r="1" gradientUnits="userSpaceOnUse" gradientTransform="translate(71 61) rotate(39.1226) scale(96.6747 78.4804)">
<stop stop-color="white" stop-opacity="0.2"/>
<stop offset="1" stop-color="white" stop-opacity="0.05"/>
</radialGradient>
<radialGradient id="paint1_radial_14_73" cx="0" cy="0" r="1" gradientUnits="userSpaceOnUse" gradientTransform="translate(71 61) rotate(90) scale(75.8378 93.2432)">
<stop stop-color="white"/>
<stop offset="1" stop-color="white" stop-opacity="0"/>
</radialGradient>
<clipPath id="clip0_14_73">
<rect width="142" height="122" fill="white"/>
</clipPath>
</defs>
</svg>
