<svg width="142" height="122" viewBox="0 0 142 122" fill="none" xmlns="http://www.w3.org/2000/svg">
<path d="M49.7861 0.5H99.0088C109.936 0.5 118.078 0.501612 124.239 1.375C130.387 2.24643 134.472 3.97477 137.354 7.36035C140.235 10.7459 141.289 15.0543 141.168 21.2617C141.061 26.7058 140.053 33.5405 138.634 42.3906L138.002 46.3086L131.207 88.3086C129.907 96.3448 128.938 102.326 127.6 106.897C126.348 111.17 124.788 114.158 122.373 116.408L121.878 116.849C119.178 119.147 115.853 120.317 111.141 120.907C106.414 121.499 100.355 121.5 92.2139 121.5H42.9912C32.064 121.5 23.9221 121.498 17.7607 120.625C11.8056 119.781 7.78641 118.132 4.92095 114.952L4.64653 114.64C1.76477 111.254 0.710604 106.946 0.83208 100.738C0.938651 95.2942 1.94683 88.4595 3.36626 79.6094L3.9981 75.6914L10.793 33.6914C12.093 25.6552 13.0617 19.6736 14.4004 15.1025C15.7352 10.545 17.4225 7.44943 20.1222 5.15137C22.8219 2.85334 26.147 1.68254 30.8594 1.09277C34.4041 0.649141 38.6986 0.537751 44.0587 0.509766L49.7861 0.5Z" fill="#0E131B" fill-opacity="0.8"/>
<path d="M49.7861 0.5H99.0088C109.936 0.5 118.078 0.501612 124.239 1.375C130.387 2.24643 134.472 3.97477 137.354 7.36035C140.235 10.7459 141.289 15.0543 141.168 21.2617C141.061 26.7058 140.053 33.5405 138.634 42.3906L138.002 46.3086L131.207 88.3086C129.907 96.3448 128.938 102.326 127.6 106.897C126.348 111.17 124.788 114.158 122.373 116.408L121.878 116.849C119.178 119.147 115.853 120.317 111.141 120.907C106.414 121.499 100.355 121.5 92.2139 121.5H42.9912C32.064 121.5 23.9221 121.498 17.7607 120.625C11.8056 119.781 7.78641 118.132 4.92095 114.952L4.64653 114.64C1.76477 111.254 0.710604 106.946 0.83208 100.738C0.938651 95.2942 1.94683 88.4595 3.36626 79.6094L3.9981 75.6914L10.793 33.6914C12.093 25.6552 13.0617 19.6736 14.4004 15.1025C15.7352 10.545 17.4225 7.44943 20.1222 5.15137C22.8219 2.85334 26.147 1.68254 30.8594 1.09277C34.4041 0.649141 38.6986 0.537751 44.0587 0.509766L49.7861 0.5Z" fill="url(#paint0_radial_14_72)"/>
<path d="M49.7861 0.5H99.0088C109.936 0.5 118.078 0.501612 124.239 1.375C130.387 2.24643 134.472 3.97477 137.354 7.36035C140.235 10.7459 141.289 15.0543 141.168 21.2617C141.061 26.7058 140.053 33.5405 138.634 42.3906L138.002 46.3086L131.207 88.3086C129.907 96.3448 128.938 102.326 127.6 106.897C126.348 111.17 124.788 114.158 122.373 116.408L121.878 116.849C119.178 119.147 115.853 120.317 111.141 120.907C106.414 121.499 100.355 121.5 92.2139 121.5H42.9912C32.064 121.5 23.9221 121.498 17.7607 120.625C11.8056 119.781 7.78641 118.132 4.92095 114.952L4.64653 114.64C1.76477 111.254 0.710604 106.946 0.83208 100.738C0.938651 95.2942 1.94683 88.4595 3.36626 79.6094L3.9981 75.6914L10.793 33.6914C12.093 25.6552 13.0617 19.6736 14.4004 15.1025C15.7352 10.545 17.4225 7.44943 20.1222 5.15137C22.8219 2.85334 26.147 1.68254 30.8594 1.09277C34.4041 0.649141 38.6986 0.537751 44.0587 0.509766L49.7861 0.5Z" stroke="url(#paint1_radial_14_72)"/>
<mask id="mask0_14_72" style="mask-type:luminance" maskUnits="userSpaceOnUse" x="41" y="31" width="60" height="60">
<path d="M101 31H41V91H101V31Z" fill="white"/>
</mask>
<g mask="url(#mask0_14_72)">
<path d="M78.0618 59.6302H60.3357V52.6158H78.0618C79.0972 52.6158 79.8172 52.7963 80.1785 53.1114C80.5398 53.4266 80.7636 54.0111 80.7636 54.865V57.3837C80.7636 58.2834 80.5398 58.8679 80.1785 59.1831C79.8172 59.4982 79.0972 59.633 78.0618 59.633V59.6302ZM79.2779 46.0027H52.8181V76H60.3357V66.2406H74.1898L80.7636 76H89.1818L81.9338 66.1949C84.606 65.7989 85.8058 64.98 86.7954 63.6304C87.7849 62.2809 88.2813 60.1232 88.2813 57.2436V54.9944C88.2813 53.2865 88.1004 51.937 87.7849 50.9026C87.4695 49.8682 86.9304 48.9685 86.1645 48.1604C85.3556 47.3954 84.455 46.8566 83.3737 46.4956C82.2924 46.1805 80.9416 46 79.2779 46V46.0027Z" fill="white"/>
<path d="M131 31C131 47.5685 117.569 61 101 61C97.6314 61 94.3927 60.4448 91.37 59.421C91.4345 58.708 91.4632 57.9791 91.4632 57.2436V54.9944C91.4632 53.0845 91.2636 51.4011 90.8286 49.9744C90.3591 48.4358 89.5545 47.1117 88.4741 45.9718L88.4141 45.9085L88.3509 45.8486C87.2 44.76 85.8952 43.983 84.3813 43.4775L84.3231 43.4581L84.2642 43.441C82.8231 43.0209 81.1595 42.8182 79.278 42.8182H76.0961V42.8209H73.4187C71.862 39.1935 71 35.1974 71 31C71 14.4315 84.4315 1 101 1C117.569 1 131 14.4315 131 31Z" fill="white"/>
</g>
<path d="M86.9091 31.4545H55.091C47.5598 31.4545 41.4546 37.5597 41.4546 45.0909V76.9091C41.4546 84.4402 47.5598 90.5454 55.0909 90.5454H86.9091C94.4403 90.5454 100.545 84.4402 100.545 76.9091V45.0909C100.545 37.5597 94.4403 31.4545 86.9091 31.4545Z" stroke="white" stroke-width="0.909091"/>
<defs>
<radialGradient id="paint0_radial_14_72" cx="0" cy="0" r="1" gradientUnits="userSpaceOnUse" gradientTransform="translate(71 61) rotate(39.1226) scale(96.6747 78.4804)">
<stop stop-color="white" stop-opacity="0.2"/>
<stop offset="1" stop-color="white" stop-opacity="0.05"/>
</radialGradient>
<radialGradient id="paint1_radial_14_72" cx="0" cy="0" r="1" gradientUnits="userSpaceOnUse" gradientTransform="translate(71 61) rotate(90) scale(75.8378 93.2432)">
<stop stop-color="white"/>
<stop offset="1" stop-color="white" stop-opacity="0"/>
</radialGradient>
</defs>
</svg>
