<svg width="142" height="122" viewBox="0 0 142 122" fill="none" xmlns="http://www.w3.org/2000/svg">
<path d="M49.7861 0.5H99.0088C109.936 0.5 118.078 0.501612 124.239 1.375C130.194 2.21918 134.214 3.86773 137.079 7.04785L137.354 7.36035C140.235 10.7459 141.289 15.0543 141.168 21.2617C141.061 26.7058 140.053 33.5405 138.634 42.3906L138.002 46.3086L131.207 88.3086C129.907 96.3448 128.938 102.326 127.6 106.897C126.348 111.17 124.788 114.158 122.373 116.408L121.878 116.849C119.178 119.147 115.853 120.317 111.141 120.907C106.414 121.499 100.355 121.5 92.2139 121.5H42.9912C32.064 121.5 23.9221 121.498 17.7607 120.625C11.8056 119.781 7.78641 118.132 4.92095 114.952L4.64653 114.64C1.76476 111.254 0.710603 106.946 0.83208 100.738C0.938651 95.2942 1.94683 88.4595 3.36626 79.6094L3.9981 75.6914L10.793 33.6914C12.093 25.6552 13.0617 19.6736 14.4004 15.1025C15.6517 10.8299 17.2125 7.84211 19.6271 5.5918L20.1222 5.15137C22.8219 2.85334 26.147 1.68254 30.8594 1.09277C34.4041 0.649141 38.6986 0.537751 44.0587 0.509766L49.7861 0.5Z" fill="#0E131B" fill-opacity="0.8"/>
<path d="M49.7861 0.5H99.0088C109.936 0.5 118.078 0.501612 124.239 1.375C130.194 2.21918 134.214 3.86773 137.079 7.04785L137.354 7.36035C140.235 10.7459 141.289 15.0543 141.168 21.2617C141.061 26.7058 140.053 33.5405 138.634 42.3906L138.002 46.3086L131.207 88.3086C129.907 96.3448 128.938 102.326 127.6 106.897C126.348 111.17 124.788 114.158 122.373 116.408L121.878 116.849C119.178 119.147 115.853 120.317 111.141 120.907C106.414 121.499 100.355 121.5 92.2139 121.5H42.9912C32.064 121.5 23.9221 121.498 17.7607 120.625C11.8056 119.781 7.78641 118.132 4.92095 114.952L4.64653 114.64C1.76476 111.254 0.710603 106.946 0.83208 100.738C0.938651 95.2942 1.94683 88.4595 3.36626 79.6094L3.9981 75.6914L10.793 33.6914C12.093 25.6552 13.0617 19.6736 14.4004 15.1025C15.6517 10.8299 17.2125 7.84211 19.6271 5.5918L20.1222 5.15137C22.8219 2.85334 26.147 1.68254 30.8594 1.09277C34.4041 0.649141 38.6986 0.537751 44.0587 0.509766L49.7861 0.5Z" fill="url(#paint0_radial_14_74)"/>
<path d="M49.7861 0.5H99.0088C109.936 0.5 118.078 0.501612 124.239 1.375C130.194 2.21918 134.214 3.86773 137.079 7.04785L137.354 7.36035C140.235 10.7459 141.289 15.0543 141.168 21.2617C141.061 26.7058 140.053 33.5405 138.634 42.3906L138.002 46.3086L131.207 88.3086C129.907 96.3448 128.938 102.326 127.6 106.897C126.348 111.17 124.788 114.158 122.373 116.408L121.878 116.849C119.178 119.147 115.853 120.317 111.141 120.907C106.414 121.499 100.355 121.5 92.2139 121.5H42.9912C32.064 121.5 23.9221 121.498 17.7607 120.625C11.8056 119.781 7.78641 118.132 4.92095 114.952L4.64653 114.64C1.76476 111.254 0.710603 106.946 0.83208 100.738C0.938651 95.2942 1.94683 88.4595 3.36626 79.6094L3.9981 75.6914L10.793 33.6914C12.093 25.6552 13.0617 19.6736 14.4004 15.1025C15.6517 10.8299 17.2125 7.84211 19.6271 5.5918L20.1222 5.15137C22.8219 2.85334 26.147 1.68254 30.8594 1.09277C34.4041 0.649141 38.6986 0.537751 44.0587 0.509766L49.7861 0.5Z" stroke="url(#paint1_radial_14_74)"/>
<path fill-rule="evenodd" clip-rule="evenodd" d="M47.78 37.78C44 41.596 44 47.698 44 59.92V62.08C44 74.284 44 80.386 47.78 84.22C51.596 88 57.698 88 69.92 88H72.08C84.284 88 90.386 88 94.22 84.22C98 80.4041 98 74.3021 98 62.08V59.92C98 47.716 98 41.614 94.22 37.78C90.4041 34 84.3021 34 72.08 34H69.92C57.716 34 51.614 34 47.78 37.78ZM53.108 50.434C53.396 64.4741 60.416 72.8981 72.728 72.8981H73.4481V64.8699C77.966 65.32 81.3861 68.6321 82.7539 72.8981H89.144C88.4887 70.474 87.3266 68.2163 85.735 66.2739C84.1433 64.3318 82.158 62.7491 79.91 61.6299C81.9245 60.4033 83.6643 58.7741 85.0208 56.8447C86.3773 54.9153 87.3215 52.7268 87.794 50.416H81.9979C80.7381 54.88 76.994 58.9299 73.4481 59.3079V50.434H67.6339V65.9861C64.034 65.0859 59.498 60.73 59.3 50.434H53.108Z" fill="white"/>
<defs>
<radialGradient id="paint0_radial_14_74" cx="0" cy="0" r="1" gradientUnits="userSpaceOnUse" gradientTransform="translate(71 61) rotate(39.1226) scale(96.6747 78.4804)">
<stop stop-color="white" stop-opacity="0.2"/>
<stop offset="1" stop-color="white" stop-opacity="0.05"/>
</radialGradient>
<radialGradient id="paint1_radial_14_74" cx="0" cy="0" r="1" gradientUnits="userSpaceOnUse" gradientTransform="translate(71 61) rotate(90) scale(75.8378 93.2432)">
<stop stop-color="white"/>
<stop offset="1" stop-color="white" stop-opacity="0"/>
</radialGradient>
</defs>
</svg>
