<svg width="142" height="122" viewBox="0 0 142 122" fill="none" xmlns="http://www.w3.org/2000/svg">
<path d="M49.7861 0.5H99.0088C109.936 0.5 118.078 0.501612 124.239 1.375C130.194 2.21918 134.214 3.86773 137.079 7.04785L137.354 7.36035C140.235 10.7459 141.289 15.0543 141.168 21.2617C141.061 26.7058 140.053 33.5405 138.634 42.3906L138.002 46.3086L131.207 88.3086C129.907 96.3448 128.938 102.326 127.6 106.897C126.348 111.17 124.788 114.158 122.373 116.408L121.878 116.849C119.178 119.147 115.853 120.317 111.141 120.907C106.414 121.499 100.355 121.5 92.2139 121.5H42.9912C32.064 121.5 23.9221 121.498 17.7607 120.625C11.8056 119.781 7.78641 118.132 4.92095 114.952L4.64653 114.64C1.76476 111.254 0.710603 106.946 0.83208 100.738C0.938651 95.2942 1.94683 88.4595 3.36626 79.6094L3.9981 75.6914L10.793 33.6914C12.093 25.6552 13.0617 19.6736 14.4004 15.1025C15.6517 10.8299 17.2125 7.84211 19.6271 5.5918L20.1222 5.15137C22.8219 2.85334 26.147 1.68254 30.8594 1.09277C34.4041 0.649141 38.6986 0.537751 44.0587 0.509766L49.7861 0.5Z" fill="#0E131B" fill-opacity="0.8"/>
<path d="M49.7861 0.5H99.0088C109.936 0.5 118.078 0.501612 124.239 1.375C130.194 2.21918 134.214 3.86773 137.079 7.04785L137.354 7.36035C140.235 10.7459 141.289 15.0543 141.168 21.2617C141.061 26.7058 140.053 33.5405 138.634 42.3906L138.002 46.3086L131.207 88.3086C129.907 96.3448 128.938 102.326 127.6 106.897C126.348 111.17 124.788 114.158 122.373 116.408L121.878 116.849C119.178 119.147 115.853 120.317 111.141 120.907C106.414 121.499 100.355 121.5 92.2139 121.5H42.9912C32.064 121.5 23.9221 121.498 17.7607 120.625C11.8056 119.781 7.78641 118.132 4.92095 114.952L4.64653 114.64C1.76476 111.254 0.710603 106.946 0.83208 100.738C0.938651 95.2942 1.94683 88.4595 3.36626 79.6094L3.9981 75.6914L10.793 33.6914C12.093 25.6552 13.0617 19.6736 14.4004 15.1025C15.6517 10.8299 17.2125 7.84211 19.6271 5.5918L20.1222 5.15137C22.8219 2.85334 26.147 1.68254 30.8594 1.09277C34.4041 0.649141 38.6986 0.537751 44.0587 0.509766L49.7861 0.5Z" fill="url(#paint0_radial_14_75)"/>
<path d="M49.7861 0.5H99.0088C109.936 0.5 118.078 0.501612 124.239 1.375C130.194 2.21918 134.214 3.86773 137.079 7.04785L137.354 7.36035C140.235 10.7459 141.289 15.0543 141.168 21.2617C141.061 26.7058 140.053 33.5405 138.634 42.3906L138.002 46.3086L131.207 88.3086C129.907 96.3448 128.938 102.326 127.6 106.897C126.348 111.17 124.788 114.158 122.373 116.408L121.878 116.849C119.178 119.147 115.853 120.317 111.141 120.907C106.414 121.499 100.355 121.5 92.2139 121.5H42.9912C32.064 121.5 23.9221 121.498 17.7607 120.625C11.8056 119.781 7.78641 118.132 4.92095 114.952L4.64653 114.64C1.76476 111.254 0.710603 106.946 0.83208 100.738C0.938651 95.2942 1.94683 88.4595 3.36626 79.6094L3.9981 75.6914L10.793 33.6914C12.093 25.6552 13.0617 19.6736 14.4004 15.1025C15.6517 10.8299 17.2125 7.84211 19.6271 5.5918L20.1222 5.15137C22.8219 2.85334 26.147 1.68254 30.8594 1.09277C34.4041 0.649141 38.6986 0.537751 44.0587 0.509766L49.7861 0.5Z" stroke="url(#paint1_radial_14_75)"/>
<path d="M99.761 45.9051C99.4277 44.5631 98.7591 43.3376 97.8235 42.3538C96.8879 41.37 95.7191 40.6632 94.4363 40.3056C86.6592 39.3478 78.8307 38.9162 71 39.0134C63.1694 38.9162 55.341 39.3478 47.5637 40.3056C46.281 40.6632 45.1121 41.37 44.1766 42.3538C43.2411 43.3376 42.5724 44.5631 42.239 45.9051C41.387 50.8934 40.9728 55.9526 41.0015 61.0195C40.9714 66.1127 41.3856 71.198 42.239 76.2124C42.5897 77.5328 43.266 78.7337 44.2004 79.6958C45.1348 80.6579 46.2945 81.347 47.5637 81.6944C55.341 82.6521 63.1694 83.084 71 82.9865C78.8307 83.084 86.6592 82.6521 94.4363 81.6944C95.7056 81.347 96.8654 80.6579 97.7995 79.6958C98.734 78.7337 99.4104 77.5328 99.761 76.2124C100.615 71.198 101.028 66.1127 100.998 61.0195C101.027 55.9526 100.613 50.8934 99.761 45.9051ZM64.8503 70.378V51.7394L80.562 61.0195L64.8503 70.3389V70.378Z" fill="white"/>
<defs>
<radialGradient id="paint0_radial_14_75" cx="0" cy="0" r="1" gradientUnits="userSpaceOnUse" gradientTransform="translate(71 61) rotate(39.1226) scale(96.6747 78.4804)">
<stop stop-color="white" stop-opacity="0.2"/>
<stop offset="1" stop-color="white" stop-opacity="0.05"/>
</radialGradient>
<radialGradient id="paint1_radial_14_75" cx="0" cy="0" r="1" gradientUnits="userSpaceOnUse" gradientTransform="translate(71 61) rotate(90) scale(75.8378 93.2432)">
<stop stop-color="white"/>
<stop offset="1" stop-color="white" stop-opacity="0"/>
</radialGradient>
</defs>
</svg>
