<svg width="873" height="385" viewBox="0 0 873 385" fill="none" xmlns="http://www.w3.org/2000/svg">
<g filter="url(#filter0_di_14_76)">
<path d="M121.08 127.578C125.903 104.785 128.315 93.3884 136.574 86.6942C144.833 80 156.482 80 179.78 80H706.975C741.184 80 758.288 80 767.293 91.1098C776.298 102.22 772.757 118.954 765.675 152.422L751.92 217.422C747.097 240.215 744.685 251.612 736.426 258.306C728.167 265 716.518 265 693.22 265H166.025C131.816 265 114.712 265 105.707 253.89C96.7019 242.78 100.243 226.046 107.325 192.578L121.08 127.578Z" fill="#FFBE17"/>
</g>
<path d="M159.496 207L173.992 138.456H193.096C198.664 138.456 203.112 139.288 206.44 140.952C209.832 142.616 212.264 144.952 213.736 147.96C215.272 150.968 216.04 154.456 216.04 158.424C216.04 162.52 215.272 166.072 213.736 169.08C212.264 172.088 210.184 174.616 207.496 176.664C204.808 178.648 201.64 180.152 197.992 181.176C194.344 182.136 190.408 182.616 186.184 182.616H178.888L173.8 207H159.496ZM187.336 170.712C190.216 170.712 192.712 170.264 194.824 169.368C197 168.408 198.664 167.032 199.816 165.24C201.032 163.448 201.64 161.304 201.64 158.808C201.64 155.928 200.872 153.816 199.336 152.472C197.8 151.064 195.528 150.36 192.52 150.36H185.8L181.48 170.712H187.336ZM246.794 207.96C241.226 207.96 236.554 206.872 232.778 204.696C229.002 202.52 226.154 199.48 224.234 195.576C222.314 191.672 221.354 187.096 221.354 181.848C221.354 178.264 221.674 174.712 222.314 171.192C222.954 167.608 223.914 164.152 225.194 160.824C226.538 157.496 228.17 154.424 230.09 151.608C232.074 148.792 234.41 146.328 237.098 144.216C239.786 142.04 242.826 140.376 246.218 139.224C249.674 138.008 253.482 137.4 257.642 137.4C265.962 137.4 272.202 139.736 276.362 144.408C280.586 149.08 282.698 155.288 282.698 163.032C282.698 166.744 282.378 170.424 281.738 174.072C281.162 177.72 280.234 181.24 278.954 184.632C277.674 187.96 276.042 191.064 274.058 193.944C272.138 196.76 269.834 199.224 267.146 201.336C264.522 203.384 261.514 205.016 258.122 206.232C254.73 207.384 250.954 207.96 246.794 207.96ZM247.85 195.768C249.706 195.768 251.498 195.448 253.226 194.808C254.954 194.104 256.554 193.112 258.026 191.832C259.562 190.488 260.938 188.888 262.154 187.032C263.37 185.112 264.426 182.968 265.322 180.6C266.218 178.168 266.89 175.512 267.338 172.632C267.85 169.752 268.106 166.68 268.106 163.416C268.106 159.192 267.114 155.832 265.13 153.336C263.21 150.776 260.33 149.496 256.49 149.496C254.506 149.496 252.618 149.88 250.826 150.648C249.034 151.416 247.37 152.536 245.834 154.008C244.362 155.416 242.986 157.112 241.706 159.096C240.49 161.08 239.434 163.288 238.538 165.72C237.706 168.088 237.066 170.648 236.618 173.4C236.17 176.088 235.946 178.904 235.946 181.848C235.946 184.856 236.394 187.416 237.29 189.528C238.25 191.576 239.626 193.144 241.418 194.232C243.21 195.256 245.354 195.768 247.85 195.768ZM306.573 207.96C303.501 207.96 300.749 207.8 298.317 207.48C295.949 207.224 293.805 206.84 291.885 206.328C290.029 205.752 288.301 205.048 286.701 204.216V191.928C289.645 193.528 292.717 194.712 295.917 195.48C299.181 196.184 302.349 196.536 305.421 196.536C307.789 196.536 309.933 196.344 311.853 195.96C313.837 195.512 315.533 194.84 316.941 193.944C318.413 193.048 319.533 191.928 320.301 190.584C321.069 189.176 321.453 187.48 321.453 185.496C321.453 182.36 320.141 180.184 317.517 178.968C314.893 177.688 311.213 177.048 306.477 177.048H299.853L302.253 165.72H308.205C311.277 165.72 314.157 165.464 316.845 164.952C319.597 164.44 321.837 163.512 323.565 162.168C325.293 160.76 326.157 158.808 326.157 156.312C326.157 154.072 325.421 152.312 323.949 151.032C322.477 149.752 320.269 149.112 317.325 149.112C314.381 149.112 311.501 149.624 308.685 150.648C305.933 151.672 303.181 153.08 300.429 154.872L295.341 145.08C298.989 142.712 302.733 140.856 306.573 139.512C310.477 138.168 315.245 137.496 320.877 137.496C325.101 137.496 328.717 138.232 331.725 139.704C334.733 141.112 337.037 143.032 338.637 145.464C340.237 147.896 341.037 150.552 341.037 153.432C341.037 157.144 340.205 160.248 338.541 162.744C336.877 165.24 334.573 167.16 331.629 168.504C328.749 169.848 325.389 170.648 321.549 170.904V171.288C324.749 171.672 327.405 172.568 329.517 173.976C331.693 175.32 333.325 177.048 334.413 179.16C335.501 181.208 336.045 183.512 336.045 186.072C336.045 189.528 335.405 192.6 334.125 195.288C332.909 197.976 331.053 200.28 328.557 202.2C326.125 204.056 323.053 205.496 319.341 206.52C315.693 207.48 311.437 207.96 306.573 207.96ZM344.465 207L358.961 138.456H373.265L367.697 164.76H369.425C374.801 164.76 379.153 165.56 382.481 167.16C385.873 168.76 388.369 171 389.969 173.88C391.569 176.76 392.369 180.12 392.369 183.96C392.369 187.8 391.697 191.16 390.353 194.04C389.073 196.92 387.185 199.32 384.689 201.24C382.193 203.16 379.153 204.6 375.569 205.56C372.049 206.52 368.049 207 363.569 207H344.465ZM364.529 195.096C367.025 195.096 369.105 194.808 370.769 194.232C372.497 193.656 373.873 192.888 374.897 191.928C375.985 190.968 376.753 189.88 377.201 188.664C377.649 187.384 377.873 186.04 377.873 184.632C377.873 182.008 377.105 180.024 375.569 178.68C374.097 177.336 371.857 176.664 368.849 176.664H365.201L361.265 195.096H364.529ZM398.225 207L412.721 138.456H427.409L412.913 207H398.225ZM429.402 207L443.898 138.456H482.01L479.514 150.36H455.514L443.514 207H429.402ZM477.684 207L492.18 138.456H511.284C516.852 138.456 521.3 139.288 524.628 140.952C528.02 142.616 530.452 144.952 531.924 147.96C533.46 150.968 534.228 154.456 534.228 158.424C534.228 162.52 533.46 166.072 531.924 169.08C530.452 172.088 528.372 174.616 525.684 176.664C522.996 178.648 519.828 180.152 516.18 181.176C512.532 182.136 508.596 182.616 504.372 182.616H497.076L491.988 207H477.684ZM505.524 170.712C508.404 170.712 510.9 170.264 513.012 169.368C515.188 168.408 516.852 167.032 518.004 165.24C519.22 163.448 519.828 161.304 519.828 158.808C519.828 155.928 519.06 153.816 517.524 152.472C515.988 151.064 513.716 150.36 510.708 150.36H503.988L499.668 170.712H505.524ZM536.277 207L550.773 138.456H565.077L559.509 164.76H561.237C566.613 164.76 570.965 165.56 574.293 167.16C577.685 168.76 580.181 171 581.781 173.88C583.381 176.76 584.181 180.12 584.181 183.96C584.181 187.8 583.509 191.16 582.165 194.04C580.885 196.92 578.997 199.32 576.501 201.24C574.005 203.16 570.965 204.6 567.381 205.56C563.861 206.52 559.861 207 555.381 207H536.277ZM556.341 195.096C558.837 195.096 560.917 194.808 562.581 194.232C564.309 193.656 565.685 192.888 566.709 191.928C567.797 190.968 568.565 189.88 569.013 188.664C569.461 187.384 569.685 186.04 569.685 184.632C569.685 182.008 568.917 180.024 567.381 178.68C565.909 177.336 563.669 176.664 560.661 176.664H557.013L553.077 195.096H556.341ZM590.037 207L604.533 138.456H619.221L604.725 207H590.037ZM621.215 207L635.711 138.456H650.399L638.399 194.904H656.255L668.255 138.456H683.039L671.039 194.904H688.895L700.895 138.456H715.583L701.087 207H621.215Z" fill="black"/>
<defs>
<filter id="filter0_di_14_76" x="0.33252" y="0" width="872.335" height="385" filterUnits="userSpaceOnUse" color-interpolation-filters="sRGB">
<feFlood flood-opacity="0" result="BackgroundImageFix"/>
<feColorMatrix in="SourceAlpha" type="matrix" values="0 0 0 0 0 0 0 0 0 0 0 0 0 0 0 0 0 0 127 0" result="hardAlpha"/>
<feOffset dy="20"/>
<feGaussianBlur stdDeviation="50"/>
<feComposite in2="hardAlpha" operator="out"/>
<feColorMatrix type="matrix" values="0 0 0 0 1 0 0 0 0 0.745098 0 0 0 0 0.0901961 0 0 0 0.25 0"/>
<feBlend mode="normal" in2="BackgroundImageFix" result="effect1_dropShadow_14_76"/>
<feBlend mode="normal" in="SourceGraphic" in2="effect1_dropShadow_14_76" result="shape"/>
<feColorMatrix in="SourceAlpha" type="matrix" values="0 0 0 0 0 0 0 0 0 0 0 0 0 0 0 0 0 0 127 0" result="hardAlpha"/>
<feOffset dy="4"/>
<feComposite in2="hardAlpha" operator="arithmetic" k2="-1" k3="1"/>
<feColorMatrix type="matrix" values="0 0 0 0 1 0 0 0 0 1 0 0 0 0 1 0 0 0 0.5 0"/>
<feBlend mode="normal" in2="shape" result="effect2_innerShadow_14_76"/>
</filter>
</defs>
</svg>
