<svg width="210" height="51" viewBox="0 0 210 51" fill="none" xmlns="http://www.w3.org/2000/svg">
<path d="M8.31861 15.4439C10.0521 8.03437 10.9189 4.32961 13.6486 2.1648C16.3783 0 20.1831 0 27.7927 0H184.781C196.409 0 202.223 0 205.226 3.78633C208.228 7.57266 206.904 13.2338 204.255 24.5561L201.681 35.5561C199.948 42.9656 199.081 46.6704 196.351 48.8352C193.622 51 189.817 51 182.207 51H25.2192C13.5912 51 7.77714 51 4.77441 47.2137C1.77168 43.4273 3.09614 37.7662 5.74508 26.4439L8.31861 15.4439Z" fill="#FFBE17"/>
<path d="M57.24 18.72C58.5067 18.72 59.5667 18.84 60.42 19.08C61.2867 19.3067 61.9333 19.6867 62.36 20.22C62.8 20.74 63.02 21.4467 63.02 22.34C63.02 22.8733 62.9333 23.36 62.76 23.8C62.5867 24.24 62.3333 24.6 62 24.88C61.68 25.16 61.2867 25.34 60.82 25.42V25.52C61.3 25.6133 61.7333 25.78 62.12 26.02C62.5067 26.26 62.8133 26.6067 63.04 27.06C63.2667 27.5133 63.38 28.1133 63.38 28.86C63.38 29.7267 63.1667 30.4733 62.74 31.1C62.3267 31.7133 61.7267 32.1867 60.94 32.52C60.1533 32.84 59.22 33 58.14 33H52.8V18.72H57.24ZM57.58 24.38C58.46 24.38 59.0667 24.24 59.4 23.96C59.7467 23.68 59.92 23.2733 59.92 22.74C59.92 22.1933 59.72 21.8 59.32 21.56C58.92 21.32 58.2867 21.2 57.42 21.2H55.82V24.38H57.58ZM55.82 26.78V30.5H57.8C58.7067 30.5 59.34 30.3267 59.7 29.98C60.06 29.62 60.24 29.1467 60.24 28.56C60.24 28.2 60.16 27.8867 60 27.62C59.8533 27.3533 59.5933 27.1467 59.22 27C58.8467 26.8533 58.34 26.78 57.7 26.78H55.82ZM72.2975 21.04C71.7242 21.04 71.2108 21.1533 70.7575 21.38C70.3175 21.6067 69.9442 21.9333 69.6375 22.36C69.3308 22.7733 69.0975 23.28 68.9375 23.88C68.7908 24.48 68.7175 25.1533 68.7175 25.9C68.7175 26.9133 68.8375 27.78 69.0775 28.5C69.3308 29.2067 69.7242 29.7467 70.2575 30.12C70.7908 30.4933 71.4708 30.68 72.2975 30.68C72.8842 30.68 73.4642 30.6133 74.0375 30.48C74.6242 30.3467 75.2575 30.16 75.9375 29.92V32.46C75.3108 32.7133 74.6908 32.9 74.0775 33.02C73.4642 33.14 72.7775 33.2 72.0175 33.2C70.5508 33.2 69.3375 32.9 68.3775 32.3C67.4308 31.6867 66.7308 30.8333 66.2775 29.74C65.8242 28.6333 65.5975 27.3467 65.5975 25.88C65.5975 24.8 65.7442 23.8133 66.0375 22.92C66.3308 22.0133 66.7575 21.2333 67.3175 20.58C67.8908 19.9267 68.5908 19.42 69.4175 19.06C70.2575 18.7 71.2175 18.52 72.2975 18.52C73.0042 18.52 73.7108 18.6133 74.4175 18.8C75.1375 18.9733 75.8242 19.2133 76.4775 19.52L75.4975 21.98C74.9642 21.7267 74.4242 21.5067 73.8775 21.32C73.3442 21.1333 72.8175 21.04 72.2975 21.04ZM84.4719 33H81.4519V21.24H77.5719V18.72H88.3519V21.24H84.4719V33ZM97.5939 28.82C97.1939 29.7267 96.7672 30.5133 96.3139 31.18C95.8739 31.8333 95.3072 32.3333 94.6139 32.68C93.9206 33.0267 93.0139 33.2 91.8939 33.2C91.5472 33.2 91.1672 33.1733 90.7539 33.12C90.3406 33.0667 89.9606 32.9933 89.6139 32.9V30.3C89.9339 30.4333 90.2872 30.5267 90.6739 30.58C91.0606 30.6333 91.4206 30.66 91.7539 30.66C92.1939 30.66 92.5472 30.5867 92.8139 30.44C93.0939 30.2933 93.3139 30.0933 93.4739 29.84C93.6472 29.5733 93.7872 29.2867 93.8939 28.98L88.9539 18.72H92.1539L94.8139 24.9C94.8806 25.0333 94.9606 25.2067 95.0539 25.42C95.1472 25.6333 95.2406 25.8533 95.3339 26.08C95.4272 26.3067 95.5006 26.5067 95.5539 26.68H95.6539C95.7072 26.52 95.7739 26.3267 95.8539 26.1C95.9472 25.86 96.0406 25.62 96.1339 25.38C96.2406 25.1267 96.3339 24.9067 96.4139 24.72L98.8939 18.72H102.014L97.5939 28.82ZM103.816 33V18.72H115.116V33H112.096V21.24H106.836V33H103.816ZM118.718 18.72H121.438V25.62C121.438 25.9533 121.431 26.3267 121.418 26.74C121.405 27.1533 121.391 27.56 121.378 27.96C121.365 28.3467 121.351 28.6867 121.338 28.98C121.325 29.26 121.311 29.4533 121.298 29.56H121.358L127.958 18.72H131.578V33H128.878V26.14C128.878 25.78 128.885 25.3867 128.898 24.96C128.911 24.52 128.925 24.1 128.938 23.7C128.965 23.3 128.985 22.9533 128.998 22.66C129.025 22.3533 129.045 22.1533 129.058 22.06H128.978L122.358 33H118.718V18.72ZM140.683 33H137.663V21.24H133.783V18.72H144.563V21.24H140.683V33ZM146.765 33V18.72H149.785V24.2H150.985C152.332 24.2 153.432 24.3867 154.285 24.76C155.152 25.1333 155.792 25.6467 156.205 26.3C156.618 26.9533 156.825 27.7 156.825 28.54C156.825 29.4733 156.618 30.2733 156.205 30.94C155.792 31.6067 155.152 32.12 154.285 32.48C153.418 32.8267 152.298 33 150.925 33H146.765ZM150.805 30.52C151.725 30.52 152.445 30.3733 152.965 30.08C153.498 29.7867 153.765 29.2733 153.765 28.54C153.765 28.0333 153.632 27.6467 153.365 27.38C153.112 27.1133 152.745 26.9333 152.265 26.84C151.798 26.7333 151.232 26.68 150.565 26.68H149.785V30.52H150.805Z" fill="black"/>
</svg>
