<svg width="210" height="51" viewBox="0 0 210 51" fill="none" xmlns="http://www.w3.org/2000/svg">
<path d="M8.31861 15.4439C10.0521 8.03437 10.9189 4.32961 13.6486 2.1648C16.3783 0 20.1831 0 27.7927 0H184.781C196.409 0 202.223 0 205.226 3.78633C208.228 7.57266 206.904 13.2338 204.255 24.5561L201.681 35.5561C199.948 42.9656 199.081 46.6704 196.351 48.8352C193.622 51 189.817 51 182.207 51H25.2192C13.5912 51 7.77714 51 4.77441 47.2137C1.77168 43.4273 3.09614 37.7662 5.74508 26.4439L8.31861 15.4439Z" fill="#FFBE17"/>
<path d="M29.8 33V18.72H41.1V33H38.08V21.24H32.82V33H29.8ZM57.6623 25.84C57.6623 26.9467 57.5223 27.9533 57.2423 28.86C56.9757 29.7533 56.5623 30.5267 56.0023 31.18C55.4557 31.8333 54.749 32.3333 53.8823 32.68C53.029 33.0267 52.0223 33.2 50.8623 33.2C49.7023 33.2 48.689 33.0267 47.8223 32.68C46.969 32.32 46.2623 31.82 45.7023 31.18C45.1557 30.5267 44.7423 29.7467 44.4623 28.84C44.1957 27.9333 44.0623 26.9267 44.0623 25.82C44.0623 24.34 44.3023 23.0533 44.7823 21.96C45.2757 20.8667 46.0223 20.02 47.0223 19.42C48.0357 18.8067 49.3223 18.5 50.8823 18.5C52.429 18.5 53.7023 18.8067 54.7023 19.42C55.7023 20.02 56.4423 20.8733 56.9223 21.98C57.4157 23.0733 57.6623 24.36 57.6623 25.84ZM47.2423 25.84C47.2423 26.84 47.369 27.7 47.6223 28.42C47.8757 29.14 48.269 29.6933 48.8023 30.08C49.3357 30.4667 50.0223 30.66 50.8623 30.66C51.729 30.66 52.4223 30.4667 52.9423 30.08C53.4757 29.6933 53.8623 29.14 54.1023 28.42C54.3557 27.7 54.4823 26.84 54.4823 25.84C54.4823 24.3333 54.2023 23.1533 53.6423 22.3C53.0823 21.4467 52.1623 21.02 50.8823 21.02C50.029 21.02 49.3357 21.2133 48.8023 21.6C48.269 21.9867 47.8757 22.54 47.6223 23.26C47.369 23.98 47.2423 24.84 47.2423 25.84ZM71.4097 18.72V30.48H73.3097V37.16H70.3897V33H61.4497V37.16H58.5297V30.48H59.6297C60.003 29.7333 60.363 28.9467 60.7097 28.12C61.0564 27.2933 61.3764 26.4067 61.6697 25.46C61.9764 24.5133 62.2497 23.4867 62.4897 22.38C62.7297 21.26 62.9297 20.04 63.0897 18.72H71.4097ZM65.4897 21.24C65.3964 21.9333 65.263 22.6733 65.0897 23.46C64.9164 24.2333 64.7097 25.0267 64.4697 25.84C64.243 26.6533 63.9897 27.4533 63.7097 28.24C63.4297 29.0267 63.1297 29.7733 62.8097 30.48H68.3897V21.24H65.4897ZM75.5031 33V18.72H86.8031V33H83.7831V21.24H78.5231V33H75.5031ZM90.4055 18.72H93.1255V25.62C93.1255 25.9533 93.1188 26.3267 93.1055 26.74C93.0921 27.1533 93.0788 27.56 93.0655 27.96C93.0521 28.3467 93.0388 28.6867 93.0255 28.98C93.0121 29.26 92.9988 29.4533 92.9855 29.56H93.0455L99.6455 18.72H103.265V33H100.565V26.14C100.565 25.78 100.572 25.3867 100.585 24.96C100.599 24.52 100.612 24.1 100.625 23.7C100.652 23.3 100.672 22.9533 100.685 22.66C100.712 22.3533 100.732 22.1533 100.745 22.06H100.665L94.0455 33H90.4055V18.72ZM112.93 21.04C112.357 21.04 111.844 21.1533 111.39 21.38C110.95 21.6067 110.577 21.9333 110.27 22.36C109.964 22.7733 109.73 23.28 109.57 23.88C109.424 24.48 109.35 25.1533 109.35 25.9C109.35 26.9133 109.47 27.78 109.71 28.5C109.964 29.2067 110.357 29.7467 110.89 30.12C111.424 30.4933 112.104 30.68 112.93 30.68C113.517 30.68 114.097 30.6133 114.67 30.48C115.257 30.3467 115.89 30.16 116.57 29.92V32.46C115.944 32.7133 115.324 32.9 114.71 33.02C114.097 33.14 113.41 33.2 112.65 33.2C111.184 33.2 109.97 32.9 109.01 32.3C108.064 31.6867 107.364 30.8333 106.91 29.74C106.457 28.6333 106.23 27.3467 106.23 25.88C106.23 24.8 106.377 23.8133 106.67 22.92C106.964 22.0133 107.39 21.2333 107.95 20.58C108.524 19.9267 109.224 19.42 110.05 19.06C110.89 18.7 111.85 18.52 112.93 18.52C113.637 18.52 114.344 18.6133 115.05 18.8C115.77 18.9733 116.457 19.2133 117.11 19.52L116.13 21.98C115.597 21.7267 115.057 21.5067 114.51 21.32C113.977 21.1333 113.45 21.04 112.93 21.04ZM128.345 33L127.305 29.6H122.105L121.065 33H117.805L122.845 18.66H126.545L131.605 33H128.345ZM125.545 23.74C125.478 23.5133 125.391 23.2267 125.285 22.88C125.178 22.5333 125.071 22.18 124.965 21.82C124.858 21.46 124.771 21.1467 124.705 20.88C124.638 21.1467 124.545 21.48 124.425 21.88C124.318 22.2667 124.211 22.64 124.105 23C124.011 23.3467 123.938 23.5933 123.885 23.74L122.865 27.06H126.585L125.545 23.74ZM137.507 33H134.487V21.24H130.607V18.72H141.387V21.24H137.507V33ZM143.589 33V18.72H146.609V24.2H147.809C149.156 24.2 150.256 24.3867 151.109 24.76C151.976 25.1333 152.616 25.6467 153.029 26.3C153.442 26.9533 153.649 27.7 153.649 28.54C153.649 29.4733 153.442 30.2733 153.029 30.94C152.616 31.6067 151.976 32.12 151.109 32.48C150.242 32.8267 149.122 33 147.749 33H143.589ZM147.629 30.52C148.549 30.52 149.269 30.3733 149.789 30.08C150.322 29.7867 150.589 29.2733 150.589 28.54C150.589 28.0333 150.456 27.6467 150.189 27.38C149.936 27.1133 149.569 26.9333 149.089 26.84C148.622 26.7333 148.056 26.68 147.389 26.68H146.609V30.52H147.629ZM162.403 21.04C161.83 21.04 161.316 21.1533 160.863 21.38C160.423 21.6067 160.05 21.9333 159.743 22.36C159.436 22.7733 159.203 23.28 159.043 23.88C158.896 24.48 158.823 25.1533 158.823 25.9C158.823 26.9133 158.943 27.78 159.183 28.5C159.436 29.2067 159.83 29.7467 160.363 30.12C160.896 30.4933 161.576 30.68 162.403 30.68C162.99 30.68 163.57 30.6133 164.143 30.48C164.73 30.3467 165.363 30.16 166.043 29.92V32.46C165.416 32.7133 164.796 32.9 164.183 33.02C163.57 33.14 162.883 33.2 162.123 33.2C160.656 33.2 159.443 32.9 158.483 32.3C157.536 31.6867 156.836 30.8333 156.383 29.74C155.93 28.6333 155.703 27.3467 155.703 25.88C155.703 24.8 155.85 23.8133 156.143 22.92C156.436 22.0133 156.863 21.2333 157.423 20.58C157.996 19.9267 158.696 19.42 159.523 19.06C160.363 18.7 161.323 18.52 162.403 18.52C163.11 18.52 163.816 18.6133 164.523 18.8C165.243 18.9733 165.93 19.2133 166.583 19.52L165.603 21.98C165.07 21.7267 164.53 21.5067 163.983 21.32C163.45 21.1333 162.923 21.04 162.403 21.04ZM173.877 27.52L170.537 33H167.177L171.237 26.72C170.851 26.56 170.464 26.3267 170.077 26.02C169.691 25.7 169.371 25.28 169.117 24.76C168.864 24.2267 168.737 23.5733 168.737 22.8C168.737 21.48 169.211 20.4733 170.157 19.78C171.104 19.0733 172.431 18.72 174.137 18.72H178.777V33H175.757V27.52H173.877ZM174.257 21.2C173.737 21.2 173.291 21.26 172.917 21.38C172.557 21.5 172.277 21.6933 172.077 21.96C171.891 22.2267 171.797 22.58 171.797 23.02C171.797 23.6467 172.004 24.1467 172.417 24.52C172.844 24.88 173.484 25.06 174.337 25.06H175.757V21.2H174.257Z" fill="black"/>
</svg>
