<svg width="471" height="166" viewBox="0 0 471 166" fill="none" xmlns="http://www.w3.org/2000/svg">
<g clip-path="url(#clip0_1_76)">
<path d="M113.307 119.895C115.327 118.391 116.964 118.332 118.374 118.643C120.125 119.028 121.641 120.07 122.27 120.691L123.279 121.687V147.777C123.37 157.174 130.947 164.77 140.322 164.861H94.544C97.8848 162.279 99.9342 158.875 101.161 156.163C102.474 153.261 103.193 150.381 103.464 148.326L104.36 141.525L105.458 133.782C108.493 130.635 110.597 126.381 111.083 121.552L113.307 119.895Z" fill="#FFBE17"/>
<path d="M95.0158 147.208C94.7821 148.981 93.8896 152.357 91.9904 155.192C93.04 153.046 93.6575 150.649 93.7305 148.114L95.0158 147.208Z" fill="#FFBE17"/>
<path d="M96.8622 133.256C97.4002 137.57 95.6289 140.868 93.7376 142.947V133.88C95.6837 133.903 96.6211 133.497 96.8622 133.256Z" fill="#FFBE17"/>
<path d="M22.3262 3.41691C29.0536 8.26599 39.0267 17.0351 48.9638 29.8539H46.1942V66.141C44.9521 65.9175 43.846 65.9502 43.1762 66.0584L32.6662 66.6279L42.466 70.6142C40.3072 88.3816 54.0648 90.0709 61.2136 88.6948C60.8727 90.2893 60.6926 97.3316 60.6454 100.654C61.1661 99.04 63.0599 94.902 66.4685 91.2574C69.8772 87.6128 75.3688 92.2064 77.6886 94.9589C76.8933 92.795 73.475 88.2677 71.8655 86.2745C75.156 83.036 76.2539 79.0241 76.3215 75.4105H84.0972C84.327 78.8182 85.4742 82.7028 88.4827 86.1322C87.441 87.461 85.4149 91.0865 85.6421 94.9589C86.6835 93.203 89.3064 89.9476 91.4652 90.9727C94.1637 92.254 96.0101 95.1013 97.2883 99.0876C98.3109 102.277 100.744 110.762 101.833 114.606C104.83 123.335 99.1946 130.109 93.7376 130.838V122.897C95.4141 121.684 97.4704 119.253 97.2883 115.602C97.038 110.588 95.4667 108.996 93.7376 108.298V101.848H56.4423C56.2892 101.617 56.1281 101.407 55.9586 101.223L55.9211 101.848H49.7631C48.6735 101.121 47.4651 100.538 46.1587 100.227C46.4195 100.678 46.7095 101.224 47.0129 101.848H16.7592V100.834C18.2811 97.9842 20.1222 95.2234 22.2982 92.9658C20.878 93.1136 18.9398 93.3533 16.7592 93.6779V76.7402C20.3203 73.7565 24.3238 71.1307 28.6895 69.3329L20.0258 67.055C22.3455 62.784 28.8883 52.9322 36.5009 47.6931V41.1442C41.661 44.2287 42.9773 39.9483 46.1587 44.2763C45.6378 38.9611 39.1994 24.9143 18.7475 8.96922C18.1226 9.84077 17.4307 11.1242 16.7592 12.817V3.41691H22.3262Z" fill="#FFBE17"/>
<path d="M122.34 74.5738C127.168 80.1042 133.101 88.337 135.493 96.5248L122.569 92.8233C123.345 94.5949 124.497 97.592 125.565 101.095C124.812 101.192 124.05 101.28 123.279 101.359V111.309C119.234 109.535 113.721 108.944 108.224 113.039C109.076 109.86 110.639 102.618 110.071 99.0874C109.029 99.4197 106.293 101.308 103.679 106.206L96.5782 88.837C101.932 89.5497 111.35 87.5808 111.122 75.4104H112.6C116.173 75.4104 119.419 75.1313 122.34 74.5738Z" fill="#FFBE17"/>
<path d="M113.306 3.41691C131.045 3.41694 145.017 7.74435 155.221 16.3993C165.583 24.8969 170.763 36.5417 170.763 51.334V53.9305C170.763 68.7227 165.583 80.446 155.221 89.1011C151.942 91.8326 148.272 94.1241 144.213 95.9774L143.671 94.1235C141.632 87.1464 136.715 79.2732 132.947 74.1053L131.09 71.562C131.965 71.0803 132.788 70.5538 133.557 69.9815C138.424 66.2048 140.857 60.8543 140.857 53.9305V51.334C140.857 44.4101 138.424 39.1382 133.557 35.519C131.216 33.7021 128.384 32.322 125.061 31.3792C124.768 25.3949 123.411 15.0224 119.586 8.96922C114.654 12.5689 104.504 21.0094 97.5771 29.8539H63.1766C58.8047 22.2697 49.9906 11.5747 39.991 3.41691H113.306Z" fill="#FFBE17"/>
<path d="M50.6496 75.4104L52.2658 76.1664C52.5971 78.4443 54.4531 82.6583 59.2252 81.2916L62.3497 83.2848C57.3132 86.2864 48.5467 84.5806 48.0258 75.4104H50.6496Z" fill="#FFBE17"/>
<path d="M105.577 75.4104C106.045 81.3417 102.762 86.8883 95.7261 83.5695L97.4304 81.8611C99.2768 82.2882 102.913 81.8611 102.685 76.7359C102.944 76.7359 103.985 76.0232 104.823 75.4104H105.577Z" fill="#FFBE17"/>
<path d="M67.4554 75.4104C68.636 78.1433 68.9655 80.2543 68.8831 81.434C66.6232 80.5846 62.889 78.0807 59.321 75.4104H67.4554Z" fill="#FFBE17"/>
<path d="M97.7777 75.4104C95.4064 77.622 92.9553 79.8298 91.4651 81.1492C91.5501 79.7683 91.8563 77.7185 92.4877 75.4104H97.7777Z" fill="#FFBE17"/>
<path d="M73.555 75.4104C73.308 75.9027 73.0653 76.3037 72.8592 76.5928C72.6228 76.1955 72.371 75.8011 72.1064 75.4104H73.555Z" fill="#FFBE17"/>
<path d="M88.2487 75.4104C88.0375 75.7966 87.8306 76.1904 87.6299 76.5928C87.3849 76.3907 87.0632 76.0029 86.7305 75.4104H88.2487Z" fill="#FFBE17"/>
<path d="M52.2658 76.1664L48.005 74.1733C47.7777 84.4237 57.0947 86.4169 62.3497 83.2848L59.2251 81.2917C54.453 82.6584 52.597 78.4443 52.2658 76.1664Z" fill="#FFBE17"/>
<path d="M97.4304 81.861L95.7261 83.5694C102.969 86.9862 106.236 81.0068 105.526 74.885C104.721 75.502 103.026 76.7358 102.685 76.7358C102.913 81.861 99.2768 82.2881 97.4304 81.861Z" fill="#FFBE17"/>
<path d="M17.7535 124.002C25.1389 134.024 35.6963 142.794 40.0517 145.926C37.552 140.232 36.9271 132.449 36.9271 129.269C38.8209 132.544 43.6023 140.459 47.5791 145.926C51.5558 151.393 54.0649 161.587 54.8224 166C54.2069 165.383 49.6243 161.587 36.217 151.336C22.8097 141.086 18.3216 128.842 17.7535 124.002Z" fill="#FFBE17"/>
<path d="M68.4568 150.482C72.339 149.248 82.3186 147.407 91.1811 149.912L95.0158 147.207C94.6843 149.723 93.0274 155.465 89.0507 158.312L88.4826 155.607L79.5349 163.864L71.2974 155.607V159.736C69.1195 158.027 64.2812 152.703 62.3497 145.072L68.4568 150.482Z" fill="#FFBE17"/>
<path d="M64.7642 132.686C66.2412 133.597 68.5989 134.205 69.5931 134.395C69.5931 138.381 71.9601 141.75 73.1437 142.937L73.7118 141.086H87.9145L88.4826 143.221L89.6188 143.648L92.6014 133.825C95.3283 134.053 96.5781 133.54 96.8622 133.256C97.6575 139.634 93.4061 143.791 91.1811 145.072C83.4549 142.225 73.8539 143.886 70.0191 145.072C64.9062 142.68 64.3855 135.818 64.7642 132.686Z" fill="#FFBE17"/>
<path fill-rule="evenodd" clip-rule="evenodd" d="M17.0432 0C23.9551 3.79645 41.6138 17.3403 56.9527 41.1441L54.5382 34.5952C60.3613 36.3512 73.2857 42.2545 78.3987 51.8216C81.2392 46.9811 88.9939 36.7592 97.2882 34.5952C96.3886 36.9679 94.6749 42.9094 95.0158 47.693C98.4719 43.1848 107.202 33.4847 114.473 30.7513C114.331 32.6969 112.769 38.8093 107.656 47.693C111.491 50.3031 120.041 58.0003 123.563 67.9091L117.598 69.6175C122.19 73.8885 132.198 85.2494 135.493 96.5249L122.569 92.8233C124.273 96.7148 127.796 106.519 128.25 114.605C125.078 111.473 116.632 106.775 108.224 113.039C109.076 109.86 110.639 102.618 110.071 99.0875C109.029 99.4198 106.293 101.308 103.679 106.206L96.5781 88.8371C102.638 89.6437 113.905 87.0147 110.497 70.0446L115.61 66.4854H108.792C108.035 66.4854 105.867 67.1973 103.253 70.0446C100.64 72.8919 94.3056 78.6342 91.4651 81.1492C91.7017 77.3053 93.6523 68.2792 99.5606 62.9262C97.1462 64.3499 91.3799 69.0765 87.6304 76.5935C86.8254 75.9292 85.1875 73.2621 85.0739 67.9091C83.7957 71.2311 82.6879 79.5262 88.4826 86.1321C87.4409 87.4609 85.4148 91.0864 85.642 94.9588C86.6834 93.2029 89.3063 89.9475 91.4651 90.9726C94.1636 92.2539 96.01 95.1012 97.2882 99.0875C98.3108 102.276 100.744 110.762 101.833 114.605C106.378 127.846 91.0674 136.587 86.6362 126.564L90.0448 119.446C90.8496 118.592 92.4877 117.396 92.6013 119.446C92.715 121.496 92.6488 123.053 92.6013 123.575C94.2582 122.815 97.5154 120.158 97.2882 115.602C97.0042 109.907 95.0158 108.626 93.0274 108.057C91.4367 107.601 80.9077 107.867 75.8422 108.057C74.5639 108.436 71.8654 109.964 71.2973 113.039C70.5872 116.883 72.0075 122.72 75.5581 123.148C75.4635 121.771 75.6434 118.933 77.1204 118.592C78.9668 118.165 80.245 119.588 81.2392 122.578C82.2334 125.568 82.6595 128.557 78.6827 129.839C74.706 131.12 66.1844 132.259 61.6395 126.564C57.0947 120.87 59.0831 112.043 58.799 109.765C58.5149 107.487 57.6628 103.074 55.9585 101.223L55.5324 108.341C54.3962 106.111 50.9307 101.365 46.1586 100.226C48.0521 103.501 51.4988 111.758 50.1354 118.592C45.0224 112.47 30.1096 103.302 11.3621 115.602C12.309 110.856 15.8217 99.6854 22.2981 92.9657C17.2798 93.4876 5.79468 95.1581 0 97.6638C3.45599 90.7354 14.0322 75.3691 28.6894 69.3328L20.0257 67.0549C22.3454 62.7839 28.8882 52.9321 36.5008 47.693L26.701 29.6124C31.8614 32.6969 42.9772 39.9482 46.1586 44.2762C45.6377 38.961 39.1993 24.9142 18.7475 8.96912C15.4808 13.5249 10.3679 29.3276 16.049 56.0926C10.1312 45.9846 2.04519 20.6148 17.0432 0ZM57.6628 62.3568C67.0934 71.1266 69.0721 78.729 68.8829 81.434C64.338 79.7256 53.8281 71.3259 50.7035 68.3362C48.2038 65.9444 44.6435 65.8211 43.1761 66.0583L32.6661 66.6278L42.4659 70.6141C40.3071 88.3815 54.0647 90.0708 61.2135 88.6947C60.8726 90.2892 60.6925 97.3315 60.6453 100.654C61.166 99.0399 63.0598 94.9019 66.4684 91.2573C69.8771 87.6127 75.3687 92.2063 77.6885 94.9588C76.8932 92.7949 73.4749 88.2676 71.8654 86.2744C78.1146 80.1242 76.4577 71.1835 74.848 67.482C75.5297 71.5822 73.8064 75.2646 72.8596 76.5935C68.9965 70.1015 61.1189 64.3975 57.6628 62.3568Z" fill="#FFBE17"/>
</g>
<path d="M228.8 19.4C234.4 19.4 238.767 20.8333 241.9 23.7C245.1 26.5 246.7 30.3 246.7 35.1C246.7 36.4333 246.533 38 246.2 39.8L245.8 41.8C244.533 48.2 242.033 52.8667 238.3 55.8C234.633 58.6667 229.333 60.1 222.4 60.1H213.8L208.3 85H194.7L209.3 19.4H228.8ZM223.2 48.2C228.6 48.2 231.767 45.7667 232.7 40.9L233.1 38.9C233.233 38.3667 233.3 37.6333 233.3 36.7C233.3 33.1 231.133 31.3 226.8 31.3H220.3L216.4 48.2H223.2ZM277.142 19.4C282.676 19.4 287.042 20.8333 290.242 23.7C293.442 26.5 295.042 30.3333 295.042 35.2C295.042 36.4667 294.876 38 294.542 39.8L294.142 41.9C293.076 47.0333 291.242 51 288.642 53.8C286.042 56.5333 282.409 58.3 277.742 59.1L285.242 83L284.842 85H272.342L264.742 59.6H262.142L256.542 85H242.942L257.542 19.4H277.142ZM281.442 38.8C281.576 37.8667 281.642 37.2 281.642 36.8C281.642 33.1333 279.509 31.3 275.242 31.3H268.542L264.642 48.1H271.742C274.409 48.1 276.476 47.5667 277.942 46.5C279.476 45.3667 280.476 43.5 280.942 40.9L281.442 38.8ZM319.675 19.4L305.075 85H291.475L306.075 19.4H319.675ZM367.848 85H355.048L363.748 46.1L345.448 85H335.948L335.048 46.5L326.448 85H313.548L328.148 19.4H344.648L345.948 59.9L365.148 19.4H382.448L367.848 85ZM427.138 19.4L424.538 31.3H402.038L398.538 46.3H419.338L416.738 58.1H395.938L392.538 73.1H415.138L412.538 85H376.438L391.038 19.4H427.138Z" fill="#FFBE17"/>
<path d="M246.6 146H239.6L251.1 94.3L224.6 146H219.3L215.8 94.3L204.3 146H197.3L211.9 80.4H221L224.8 132.1L251.6 80.4H261.2L246.6 146ZM280.591 147.1C275.457 147.1 271.391 145.733 268.391 143C265.457 140.267 263.991 136.633 263.991 132.1C263.991 130.367 264.157 128.833 264.491 127.5L271.191 97C272.457 91.2667 274.857 86.9 278.391 83.9C281.924 80.8333 286.391 79.3 291.791 79.3C296.924 79.3 300.991 80.7 303.991 83.5C307.057 86.2333 308.591 89.8667 308.591 94.4C308.591 95.6667 308.424 97.2 308.091 99L301.291 129.5C300.024 135.233 297.624 139.6 294.091 142.6C290.557 145.6 286.057 147.1 280.591 147.1ZM280.991 140.7C288.057 140.7 292.491 136.7 294.291 128.7L301.091 98.7C301.357 97.5667 301.491 96.3333 301.491 95C301.491 92.1333 300.624 89.8667 298.891 88.2C297.157 86.5333 294.724 85.7 291.591 85.7C284.457 85.7 279.991 89.7333 278.191 97.8L271.491 127.9C271.224 129.033 271.091 130.2 271.091 131.4C271.091 134.333 271.957 136.633 273.691 138.3C275.424 139.9 277.857 140.7 280.991 140.7ZM342.863 80.4C347.663 80.4 351.429 81.6 354.163 84C356.963 86.4 358.363 89.6 358.363 93.6C358.363 95 358.229 96.2667 357.963 97.4L357.463 99.4C355.929 106.6 352.096 111.133 345.963 113C348.029 114.067 349.629 115.6 350.763 117.6C351.896 119.533 352.463 121.767 352.463 124.3C352.463 125.7 352.329 127.033 352.063 128.3L351.663 130.3C349.463 140.767 342.729 146 331.463 146H311.363L325.963 80.4H342.863ZM350.763 97.3C351.029 95.8333 351.163 94.8333 351.163 94.3C351.163 91.8333 350.329 89.9667 348.663 88.7C347.063 87.3667 344.696 86.7 341.563 86.7H331.863L326.763 109.6H337.063C340.729 109.6 343.663 108.733 345.863 107C348.129 105.2 349.629 102.6 350.363 99.2L350.763 97.3ZM345.163 127.2C345.363 126.067 345.463 125.033 345.463 124.1C345.463 121.5 344.663 119.467 343.063 118C341.463 116.533 339.229 115.8 336.363 115.8H325.363L320.063 139.7H331.363C338.763 139.7 343.229 136.167 344.763 129.1L345.163 127.2ZM382.102 80.4L367.502 146H360.302L374.902 80.4H382.102ZM403.475 80.4L390.275 139.6H416.975L415.575 146H381.675L396.275 80.4H403.475ZM470.977 80.4L469.577 86.8H443.777L438.477 110H462.977L461.577 116.4H437.177L431.977 139.6H457.777L456.377 146H423.277L437.877 80.4H470.977Z" fill="white"/>
<defs>
<clipPath id="clip0_1_76">
<rect width="171" height="166" fill="white"/>
</clipPath>
</defs>
</svg>
